<svg xmlns="http://www.w3.org/2000/svg" version="1" viewBox="0 0 120 120"><path d="M76.4 26.9a29 29 0 0 0-13.1 15.5 73.4 73.4 0 0 0-1.1 27l.8 4.9-9.8-.6c-11.1-.6-17.2-2.4-22.5-6.8l-3.7-3V53c0-11.5-.4-14-2.5-14-.8 0-1.1-.8-.8-2 .8-3.1 2.2-3.4 3.3-.8.8 2 .9 1.9.7-1.2-.2-2.8-.7-3.6-2.4-3.8-3.8-.5-5.7 4.7-5.7 15.8-.1 8.2.2 10.2 2.4 14.5 2.2 4.6 2.4 5.9 1.9 12.7l-1.3 12.2c-.6 3.7-.4 4.6.7 4.6 1.5 0 1.7-.9 3.3-15.3.3-3.1.9-5.7 1.3-5.7a47.4 47.4 0 0 0 26.5 7h9.3l2.7 7c3.6 9 9.4 13.9 10.4 8.7.2-1.2-.3-1.7-1.8-1.7-1.6 0-2.7-1.3-4.4-5.3-4.3-9.6-4.4-9.1 2.5-10.6 12.8-2.6 23.2-9 26.8-16.4 8-16.5-8.4-38.8-23.5-31.8zm11.3 3c7.5 3.4 13.4 14.7 11.9 22.6-1.4 7.2-10.3 14.4-22.5 18.4-11.4 3.7-11.6 3.6-12.7-9.9-1.3-14.9 4.5-27.6 14.6-32.2 2.5-1.1 4.3-.9 8.7 1.1zM24.9 51c0 4-.3 5.9-.8 5a27 27 0 0 1-1.5-12.7c.7-2.5.8-2.5 1.5-.8.4 1.1.8 4.9.8 8.5z"/></svg>